<svg width="52" height="52" fill="none" xmlns="http://www.w3.org/2000/svg"><path d="M14 48a2 2 0 100 4 2 2 0 000-4zM2 48a2 2 0 100 4 2 2 0 000-4zm36-12a2 2 0 100 4 2 2 0 000-4zm-12 0a2 2 0 100 4 2 2 0 000-4zm-12 0a2 2 0 100 4 2 2 0 000-4zM2 36a2 2 0 100 4 2 2 0 000-4zm36-12a2 2 0 100 4 2 2 0 000-4zm-12 0a2 2 0 100 4 2 2 0 000-4zm-12 0a2 2 0 100 4 2 2 0 000-4zM2 24a2 2 0 100 4 2 2 0 000-4zm48-12a2 2 0 100 4 2 2 0 000-4zm-12 0a2 2 0 100 4 2 2 0 000-4zm-12 0a2 2 0 100 4 2 2 0 000-4zm-12 0a2 2 0 100 4 2 2 0 000-4zM2 12a2 2 0 100 4 2 2 0 000-4zM50 0a2 2 0 100 4 2 2 0 000-4zM38 0a2 2 0 100 4 2 2 0 000-4zM26 0a2 2 0 100 4 2 2 0 000-4zM14 0a2 2 0 100 4 2 2 0 000-4zM2 0a2 2 0 100 4 2 2 0 000-4z" fill="rgba(127,127,127,.3)"/></svg>