<svg width="52" height="52" fill="none" xmlns="http://www.w3.org/2000/svg"><path d="M4 14a2 2 0 10-4 0 2 2 0 004 0zM4 2a2 2 0 10-4 0 2 2 0 004 0zm12 36a2 2 0 10-4 0 2 2 0 004 0zm0-12a2 2 0 10-4 0 2 2 0 004 0zm0-12a2 2 0 10-4 0 2 2 0 004 0zm0-12a2 2 0 10-4 0 2 2 0 004 0zm12 36a2 2 0 10-4 0 2 2 0 004 0zm0-12a2 2 0 10-4 0 2 2 0 004 0zm0-12a2 2 0 10-4 0 2 2 0 004 0zm0-12a2 2 0 10-4 0 2 2 0 004 0zm12 48a2 2 0 10-4 0 2 2 0 004 0zm0-12a2 2 0 10-4 0 2 2 0 004 0zm0-12a2 2 0 10-4 0 2 2 0 004 0zm0-12a2 2 0 10-4 0 2 2 0 004 0zm0-12a2 2 0 10-4 0 2 2 0 004 0zm12 48a2 2 0 10-4 0 2 2 0 004 0zm0-12a2 2 0 10-4 0 2 2 0 004 0zm0-12a2 2 0 10-4 0 2 2 0 004 0zm0-12a2 2 0 10-4 0 2 2 0 004 0zm0-12a2 2 0 10-4 0 2 2 0 004 0z" fill="rgba(127,127,127,.3)"/></svg>