<svg width="52" height="52" fill="none" xmlns="http://www.w3.org/2000/svg"><path d="M38 4a2 2 0 100-4 2 2 0 000 4zm12 0a2 2 0 100-4 2 2 0 000 4zM14 16a2 2 0 100-4 2 2 0 000 4zm12 0a2 2 0 100-4 2 2 0 000 4zm12 0a2 2 0 100-4 2 2 0 000 4zm12 0a2 2 0 100-4 2 2 0 000 4zM14 28a2 2 0 100-4 2 2 0 000 4zm12 0a2 2 0 100-4 2 2 0 000 4zm12 0a2 2 0 100-4 2 2 0 000 4zm12 0a2 2 0 100-4 2 2 0 000 4zM2 40a2 2 0 100-4 2 2 0 000 4zm12 0a2 2 0 100-4 2 2 0 000 4zm12 0a2 2 0 100-4 2 2 0 000 4zm12 0a2 2 0 100-4 2 2 0 000 4zm12 0a2 2 0 100-4 2 2 0 000 4zM2 52a2 2 0 100-4 2 2 0 000 4zm12 0a2 2 0 100-4 2 2 0 000 4zm12 0a2 2 0 100-4 2 2 0 000 4zm12 0a2 2 0 100-4 2 2 0 000 4zm12 0a2 2 0 100-4 2 2 0 000 4z" fill="#E4A30B"/></svg>