<svg width="52" height="52" fill="none" xmlns="http://www.w3.org/2000/svg"><path d="M48 38a2 2 0 104 0 2 2 0 00-4 0zm0 12a2 2 0 104 0 2 2 0 00-4 0zM36 14a2 2 0 104 0 2 2 0 00-4 0zm0 12a2 2 0 104 0 2 2 0 00-4 0zm0 12a2 2 0 104 0 2 2 0 00-4 0zm0 12a2 2 0 104 0 2 2 0 00-4 0zM24 14a2 2 0 104 0 2 2 0 00-4 0zm0 12a2 2 0 104 0 2 2 0 00-4 0zm0 12a2 2 0 104 0 2 2 0 00-4 0zm0 12a2 2 0 104 0 2 2 0 00-4 0zM12 2a2 2 0 104 0 2 2 0 00-4 0zm0 12a2 2 0 104 0 2 2 0 00-4 0zm0 12a2 2 0 104 0 2 2 0 00-4 0zm0 12a2 2 0 104 0 2 2 0 00-4 0zm0 12a2 2 0 104 0 2 2 0 00-4 0zM0 2a2 2 0 104 0 2 2 0 00-4 0zm0 12a2 2 0 104 0 2 2 0 00-4 0zm0 12a2 2 0 104 0 2 2 0 00-4 0zm0 12a2 2 0 104 0 2 2 0 00-4 0zm0 12a2 2 0 104 0 2 2 0 00-4 0z" fill="rgba(127,127,127,.3)"/></svg>