<svg width="32" height="32" fill="none" xmlns="http://www.w3.org/2000/svg"><path d="M16 10.667A5.332 5.332 0 0010.666 16 5.332 5.332 0 0016 21.333 5.332 5.332 0 0021.333 16 5.332 5.332 0 0016 10.667zm11.92 4A11.992 11.992 0 0017.333 4.08V2.667c0-.734-.6-1.334-1.333-1.334-.734 0-1.334.6-1.334 1.334V4.08A11.992 11.992 0 004.08 14.667H2.666c-.733 0-1.333.6-1.333 1.333s.6 1.333 1.333 1.333H4.08A11.992 11.992 0 0014.666 27.92v1.413c0 .734.6 1.334 1.334 1.334.733 0 1.333-.6 1.333-1.334V27.92A11.992 11.992 0 0027.92 17.333h1.413c.733 0 1.333-.6 1.333-1.333s-.6-1.333-1.333-1.333H27.92zM16 25.333A9.327 9.327 0 016.666 16 9.326 9.326 0 0116 6.667 9.326 9.326 0 0125.333 16 9.327 9.327 0 0116 25.333z" fill="url(#a)"/><defs><linearGradient id="a" x1="16" y1="1.333" x2="16" y2="30.667" gradientUnits="userSpaceOnUse"><stop stop-color="#FFBF00"/><stop offset="1" stop-color="#F2A50C"/></linearGradient></defs></svg>